<svg width="140" height="140" xmlns="http://www.w3.org/2000/svg" xmlns:xlink="http://www.w3.org/1999/xlink" xml:space="preserve" overflow="hidden"><g transform="translate(-729 -196)"><path d="M833.921 212.074C844.433 212.071 852.956 220.591 852.958 231.102 852.959 235.854 851.183 240.434 847.978 243.943L776.934 314.915C769.178 322.012 757.138 321.477 750.042 313.722 743.395 306.457 743.386 295.321 750.022 288.046L821.066 217.073C824.573 213.854 829.161 212.07 833.921 212.074M833.921 209.157C828.408 209.151 823.096 211.226 819.046 214.967L747.915 286.029C739.716 294.959 740.308 308.845 749.239 317.044 757.643 324.76 770.558 324.751 778.952 317.023L850.085 245.961C858.289 237.037 857.705 223.151 848.781 214.947 844.729 211.222 839.425 209.156 833.921 209.157Z" fill="#FFFFFF"/><path d="M799 248.344C797.792 248.344 796.812 249.323 796.812 250.531 796.812 251.739 797.791 252.719 798.999 252.719 800.207 252.719 801.187 251.74 801.187 250.532 801.187 249.952 800.957 249.396 800.547 248.986 800.137 248.575 799.58 248.344 799 248.344Z" fill="#FFFFFF"/><path d="M804.157 253.501C802.949 253.5 801.969 254.48 801.969 255.688 801.968 256.896 802.948 257.875 804.156 257.876 805.364 257.876 806.343 256.897 806.344 255.689 806.344 255.108 806.113 254.551 805.703 254.141 805.292 253.731 804.736 253.501 804.157 253.501Z" fill="#FFFFFF"/><path d="M809.312 258.656C808.104 258.656 807.124 259.635 807.124 260.843 807.124 262.051 808.103 263.031 809.311 263.031 810.519 263.031 811.499 262.052 811.499 260.844 811.499 260.264 811.269 259.708 810.859 259.297 810.449 258.887 809.892 258.656 809.312 258.656Z" fill="#FFFFFF"/><path d="M814.469 263.812C813.26 263.812 812.281 264.791 812.281 266 812.28 267.208 813.259 268.187 814.468 268.188 815.676 268.188 816.655 267.209 816.656 266 816.656 265.42 816.425 264.863 816.014 264.453 815.604 264.043 815.048 263.813 814.469 263.812Z" fill="#FFFFFF"/><path d="M783.531 263.812C782.323 263.813 781.344 264.793 781.345 266.001 781.346 267.209 782.325 268.188 783.534 268.188 784.742 268.187 785.721 267.207 785.72 265.999 785.72 265.419 785.489 264.863 785.079 264.453 784.669 264.042 784.112 263.811 783.531 263.812Z" fill="#FFFFFF"/><path d="M788.688 268.969C787.48 268.97 786.501 269.95 786.502 271.158 786.502 272.366 787.482 273.345 788.69 273.344 789.898 273.344 790.877 272.364 790.877 271.156 790.876 270.576 790.646 270.019 790.235 269.609 789.825 269.199 789.268 268.969 788.688 268.969Z" fill="#FFFFFF"/><path d="M793.843 274.124C792.635 274.125 791.656 275.105 791.657 276.313 791.657 277.521 792.637 278.5 793.845 278.499 795.053 278.499 796.032 277.519 796.032 276.311 796.032 275.731 795.801 275.175 795.391 274.765 794.98 274.354 794.424 274.124 793.843 274.124Z" fill="#FFFFFF"/><path d="M799 279.281C797.792 279.282 796.813 280.261 796.814 281.47 796.814 282.678 797.794 283.657 799.002 283.656 800.21 283.655 801.189 282.676 801.189 281.468 801.188 280.888 800.958 280.331 800.547 279.921 800.137 279.511 799.58 279.281 799 279.281Z" fill="#FFFFFF"/><path d="M793.843 253.501C792.635 253.501 791.656 254.481 791.657 255.689 791.657 256.897 792.637 257.876 793.845 257.876 795.053 257.875 796.032 256.895 796.032 255.687 796.032 255.107 795.801 254.551 795.391 254.141 794.981 253.73 794.424 253.5 793.843 253.501Z" fill="#FFFFFF"/><path d="M799 258.656C797.792 258.656 796.812 259.635 796.812 260.843 796.812 262.051 797.791 263.031 798.999 263.031 800.207 263.031 801.187 262.052 801.187 260.844 801.187 260.264 800.957 259.708 800.547 259.297 800.137 258.887 799.58 258.656 799 258.656Z" fill="#FFFFFF"/><path d="M804.157 263.812C802.949 263.812 801.969 264.791 801.969 266 801.968 267.208 802.948 268.187 804.156 268.188 805.364 268.188 806.343 267.209 806.344 266 806.344 265.42 806.113 264.863 805.703 264.453 805.292 264.043 804.736 263.813 804.157 263.812Z" fill="#FFFFFF"/><path d="M809.312 268.969C808.104 268.97 807.125 269.95 807.125 271.158 807.126 272.366 808.106 273.345 809.314 273.344 810.522 273.344 811.501 272.364 811.5 271.156 811.5 270.576 811.269 270.019 810.859 269.609 810.449 269.199 809.892 268.969 809.312 268.969Z" fill="#FFFFFF"/><path d="M788.688 258.656C787.48 258.656 786.5 259.635 786.5 260.843 786.5 262.051 787.479 263.031 788.687 263.031 789.895 263.031 790.875 262.052 790.875 260.844 790.875 260.264 790.645 259.708 790.235 259.297 789.825 258.887 789.269 258.656 788.688 258.656Z" fill="#FFFFFF"/><path d="M793.843 263.812C792.635 263.813 791.656 264.793 791.657 266.001 791.657 267.209 792.637 268.188 793.845 268.188 795.053 268.187 796.032 267.207 796.032 265.999 796.032 265.419 795.801 264.863 795.391 264.453 794.981 264.042 794.424 263.811 793.843 263.812Z" fill="#FFFFFF"/><path d="M799 268.969C797.792 268.97 796.813 269.95 796.814 271.158 796.814 272.366 797.794 273.345 799.002 273.344 800.21 273.344 801.189 272.364 801.189 271.156 801.188 270.576 800.958 270.019 800.547 269.609 800.137 269.199 799.58 268.969 799 268.969Z" fill="#FFFFFF"/><path d="M804.157 274.124C802.949 274.124 801.969 275.103 801.969 276.311 801.968 277.52 802.948 278.499 804.156 278.499 805.364 278.5 806.343 277.52 806.344 276.312 806.344 275.732 806.113 275.175 805.703 274.765 805.292 274.355 804.736 274.125 804.157 274.124Z" fill="#FFFFFF"/></g></svg>