<svg width="214" height="214" xmlns="http://www.w3.org/2000/svg" xmlns:xlink="http://www.w3.org/1999/xlink" xml:space="preserve" overflow="hidden"><defs><clipPath id="clip0"><rect x="2869" y="466" width="214" height="214"/></clipPath></defs><g clip-path="url(#clip0)" transform="translate(-2869 -466)"><path d="M2976 466C2916.91 466 2869 513.906 2869 573 2869 632.094 2916.91 680 2976 680 3035.09 680 3083 632.094 3083 573 3083.03 513.931 3035.16 466.025 2976.09 466 2976.06 466 2976.03 466 2976 466ZM3001.91 578.108C2986.32 593.67 2970.63 609.37 2954.85 625.21 2941.44 611.74 2928 598.299 2914.54 584.888L2928.01 571.418 2954.85 598.269C2967.89 585.046 2980.84 571.919 2993.71 558.887 3006.59 545.85 3013.72 538.856 3027.07 525.948 3027.44 525.571 3027.84 525.199 3028.28 524.822 3028.71 524.462 3029.08 524.054 3029.41 523.606L3043.07 537.076C3027.25 552.856 3017.52 562.548 3001.91 578.108Z" fill="#36E9A0" fill-rule="evenodd"/></g></svg>