<svg width="140" height="140" xmlns="http://www.w3.org/2000/svg" xmlns:xlink="http://www.w3.org/1999/xlink" xml:space="preserve" overflow="hidden"><g transform="translate(-1046 -196)"><path d="M1118.92 225.167C1098.79 225.167 1082.17 239.604 1078.81 258.708L1075.17 258.708C1073.56 258.708 1072.25 260.021 1072.25 261.625L1072.25 267.458C1072.25 269.062 1073.56 270.375 1075.17 270.375L1078.38 270.375C1080.56 290.938 1097.77 306.833 1118.92 306.833 1141.52 306.833 1159.75 288.604 1159.75 266 1159.75 243.396 1141.52 225.167 1118.92 225.167ZM1118.92 298.083C1101.12 298.083 1086.83 283.792 1086.83 266 1086.83 248.208 1101.12 233.917 1118.92 233.917 1136.71 233.917 1151 248.208 1151 266 1151 283.792 1136.71 298.083 1118.92 298.083Z" fill="#FFFFFF"/><path d="M1147.21 228.812 1143.12 206.646C1142.69 203.875 1140.21 201.833 1137.44 201.833L1100.4 201.833C1097.62 201.833 1095.15 203.875 1094.71 206.646L1090.62 228.958C1107.4 216.125 1130.44 216.125 1147.21 228.812Z" fill="#FFFFFF"/><path d="M1090.62 303.188 1094.71 325.5C1095.15 328.271 1097.62 330.312 1100.4 330.312L1137.29 330.312C1140.06 330.312 1142.54 328.271 1142.98 325.5L1147.06 303.188C1130.44 315.875 1107.4 315.875 1090.62 303.188Z" fill="#FFFFFF"/><path d="M1121.83 242.667 1116 242.667 1116 266C1116 266.729 1116.29 267.458 1116.88 268.042L1132.92 284.083 1137 280 1121.83 264.833 1121.83 242.667Z" fill="#FFFFFF"/></g></svg>