<svg width="140" height="140" xmlns="http://www.w3.org/2000/svg" xmlns:xlink="http://www.w3.org/1999/xlink" xml:space="preserve" overflow="hidden"><g transform="translate(-411 -196)"><path d="M460.583 223.708 501.417 223.708C507.104 223.708 511.625 228.229 511.625 233.917L502.875 233.917 502.875 239.75 511.625 239.75 511.625 248.5 502.875 248.5 502.875 254.333 511.625 254.333 511.625 263.083 502.875 263.083 502.875 268.917 511.625 268.917 511.625 274.75C504.042 277.812 495 275.625 487.271 272.708 480.708 270.229 477.208 267.167 470.354 266.146 464.521 265.271 455.917 266.292 450.375 269.646L450.375 233.917C450.375 228.229 454.896 223.708 460.583 223.708ZM481 207.667C482.604 207.667 483.917 208.979 483.917 210.583 483.917 212.188 482.604 213.5 481 213.5 479.396 213.5 478.083 212.188 478.083 210.583 478.083 208.979 479.396 207.667 481 207.667ZM501.417 214.958 488.583 214.958C489.312 213.646 489.75 212.188 489.75 210.583 489.75 205.771 485.812 201.833 481 201.833 476.188 201.833 472.25 205.771 472.25 210.583 472.25 212.188 472.688 213.646 473.417 214.958L460.583 214.958C450.083 214.958 441.625 223.417 441.625 233.917L441.625 292.25C441.625 302.75 450.083 311.208 460.583 311.208L472.25 311.208 472.25 317.042C472.25 318.646 473.562 319.958 475.167 319.958L478.083 319.958 478.083 330.167 483.917 330.167 483.917 319.958 486.833 319.958C488.438 319.958 489.75 318.646 489.75 317.042L489.75 311.208 501.417 311.208C511.917 311.208 520.375 302.75 520.375 292.25L520.375 233.917C520.375 223.417 511.917 214.958 501.417 214.958Z" fill="#FFFFFF"/></g></svg>