<svg width="218" height="218" xmlns="http://www.w3.org/2000/svg" xmlns:xlink="http://www.w3.org/1999/xlink" xml:space="preserve" overflow="hidden"><g transform="translate(-531 -341)"><path d="M578.46 471.8 622.06 428.2 597.763 428.2C605.71 412.758 621.833 402.085 640.454 402.085 652.49 402.085 663.617 406.627 672.019 414.121L716.3 414.121C702.902 385.508 673.835 365.979 640.454 365.979 601.623 365.979 568.923 392.321 559.385 428.2L534.86 428.2 578.46 471.8Z" fill="#FFFFFF"/><path d="M745.821 471.8 702.221 428.2 658.621 471.8 683.146 471.8C675.198 487.242 659.075 497.915 640.454 497.915 628.419 497.915 617.292 493.373 608.89 485.879L564.381 485.879C578.006 514.492 606.846 534.021 640.454 534.021 679.285 534.021 711.985 507.679 721.523 471.8L745.821 471.8Z" fill="#FFFFFF"/></g></svg>