<svg width="140" height="140" xmlns="http://www.w3.org/2000/svg" xmlns:xlink="http://www.w3.org/1999/xlink" xml:space="preserve" overflow="hidden"><g transform="translate(-94 -196)"><path d="M163.958 314.202C141.4 314.209 123.107 295.927 123.101 273.369 123.095 250.811 141.376 232.519 163.934 232.512 186.492 232.506 204.785 250.788 204.791 273.346 204.791 273.35 204.791 273.353 204.791 273.357 204.831 295.875 186.61 314.162 164.092 314.202 164.047 314.202 164.002 314.202 163.958 314.202ZM198.52 237.764 202.895 233.389C204.53 231.651 204.465 228.922 202.749 227.264 201.061 225.618 198.389 225.554 196.624 227.118L191.666 232.222C184.728 227.522 176.687 224.707 168.333 224.055L168.333 217.93 181.458 217.93 181.458 209.18 146.458 209.18 146.458 217.93 159.583 217.93 159.583 223.91C132.227 226.29 111.98 250.396 114.361 277.751 116.741 305.107 140.847 325.353 168.202 322.973 195.558 320.593 215.805 296.487 213.424 269.132 212.388 257.224 207.097 246.088 198.52 237.764Z" fill="#FFFFFF"/><path d="M128.955 273.335C128.964 292.656 144.634 308.31 163.955 308.3 183.275 308.291 198.929 292.621 198.92 273.3 198.91 253.994 183.261 238.345 163.955 238.335L163.955 273.335Z" fill="#FFFFFF"/></g></svg>