<svg width="96" height="96" xmlns="http://www.w3.org/2000/svg" xmlns:xlink="http://www.w3.org/1999/xlink" xml:space="preserve" overflow="hidden"><g transform="translate(-606 -471)"><path d="M653.986 481C633.011 481 616.007 498.004 616.007 518.979 616.007 539.954 633.011 556.958 653.986 556.958 674.961 556.958 691.965 539.954 691.965 518.979 691.965 518.978 691.965 518.976 691.965 518.975 691.972 498.009 674.982 481.007 654.016 481 654.006 481 653.996 481 653.986 481ZM672.605 522.36 657.367 522.36 657.367 537.594 650.605 537.594 650.605 522.356 635.367 522.356 635.367 515.594 650.605 515.594 650.605 500.356 657.367 500.356 657.367 515.594 672.605 515.594Z" fill="#36E9A0"/></g></svg>